<svg width="800" height="800" viewBox="0 0 800 800" fill="none" xmlns="http://www.w3.org/2000/svg">
  <rect width="800" height="800" fill="#FAF8F5"/>
  <circle cx="400" cy="400" r="300" fill="#F4EFE6" fill-opacity="0.6"/>
  <ellipse cx="400" cy="650" rx="220" ry="24" fill="#0A1C2A" fill-opacity="0.1"/>
  <path d="M300 380C300 220 340 180 400 180C460 180 500 220 500 380" stroke="#78350F" stroke-width="20" stroke-linecap="round"/>
  <rect x="180" y="340" width="440" height="280" rx="28" fill="#142238" stroke="#0A1C2A" stroke-width="4"/>
  <path d="M180 520H260V620H208C192.536 620 180 607.464 180 592V520Z" fill="#78350F"/>
  <path d="M620 520H540V620H592C607.464 620 620 607.464 620 592V520Z" fill="#78350F"/>
  <rect x="250" y="400" width="300" height="170" rx="16" fill="#1E3352" stroke="#C88A58" stroke-width="2"/>
  <text x="400" y="470" text-anchor="middle" fill="#FAF8F5" font-family="serif" font-size="16" letter-spacing="4">MIDDAY CREW</text>
  <text x="400" y="495" text-anchor="middle" fill="#C88A58" font-family="sans-serif" font-size="10" letter-spacing="2">DALLAS COURT &amp; CLUB</text>
</svg>