<svg width="800" height="800" viewBox="0 0 800 800" fill="none" xmlns="http://www.w3.org/2000/svg">
  <rect width="800" height="800" fill="#FAF8F5"/>
  <circle cx="400" cy="400" r="320" fill="#F4EFE6" fill-opacity="0.6"/>
  <ellipse cx="400" cy="710" rx="140" ry="18" fill="#0A1C2A" fill-opacity="0.08"/>
  <rect x="368" y="475" width="64" height="225" rx="8" fill="#1C1917"/>
  <line x1="368" y1="500" x2="432" y2="525" stroke="#E2E8F0" stroke-width="2.5"/>
  <line x1="368" y1="530" x2="432" y2="555" stroke="#E2E8F0" stroke-width="2.5"/>
  <rect x="364" y="690" width="72" height="18" rx="6" fill="#0A1C2A" stroke="#E2E8F0" stroke-width="1.5"/>
  <rect x="250" y="90" width="300" height="395" rx="90" fill="#172554" stroke="#0A1C2A" stroke-width="6"/>
  <polygon points="400,158 406,170 418,175 406,180 400,192 394,180 382,175 394,170" fill="#60A5FA"/>
  <text x="400" y="255" text-anchor="middle" fill="#FFFFFF" font-family="serif" font-size="30" letter-spacing="6" font-weight="600">DIADEM</text>
  <text x="400" y="285" text-anchor="middle" fill="#93C5FD" font-family="sans-serif" font-size="13" letter-spacing="4" font-weight="700">WARRIOR V2</text>
  <text x="400" y="312" text-anchor="middle" fill="#CBD5E1" font-family="sans-serif" font-size="10" letter-spacing="2">19MM DAMPENING CORE • MAXIMUM TOUCH</text>
  <rect x="350" y="390" width="100" height="20" rx="4" fill="#0A1C2A" stroke="#D8E038" stroke-width="1"/>
  <text x="400" y="404" text-anchor="middle" fill="#D8E038" font-family="sans-serif" font-size="9" font-weight="700" letter-spacing="1">USAPA APPROVED</text>
</svg>